
<svg width="418px" height="150px" viewBox="0 0 418 150" version="1.1" xmlns="http://www.w3.org/2000/svg" xmlns:xlink="http://www.w3.org/1999/xlink">
    <!-- Generator: Sketch 48.2 (47327) - http://www.bohemiancoding.com/sketch -->
    <desc>Created with Sketch.</desc>
    <defs>
        <text id="text-1" font-family="CaviarDreams, Caviar Dreams" font-size="120" font-weight="normal" fill="#4A90E2">
            <tspan x="222" y="128">Plus</tspan>
        </text>
        <filter x="-3.5%" y="-3.6%" width="107.0%" height="110.1%" filterUnits="objectBoundingBox" id="filter-2">
            <feOffset dx="0" dy="2" in="SourceAlpha" result="shadowOffsetOuter1"></feOffset>
            <feGaussianBlur stdDeviation="2" in="shadowOffsetOuter1" result="shadowBlurOuter1"></feGaussianBlur>
            <feColorMatrix values="0 0 0 0 0   0 0 0 0 0   0 0 0 0 0  0 0 0 0.5 0" type="matrix" in="shadowBlurOuter1"></feColorMatrix>
        </filter>
    </defs>
    <g id="3849072.jpeg" stroke="none" stroke-width="1" fill="none" fill-rule="evenodd">
        <g id="a" fill-rule="nonzero">
            <path d="M185.272727,128 L124.727273,128 C121.008877,128 118,125.651856 118,122.75 L118,28.25 C118,25.3481439 121.008877,23 124.727273,23 L185.272727,23 C188.991123,23 192,25.3481439 192,28.25 L192,122.75 C192,125.651856 188.991123,128 185.272727,128 Z" id="Shape" fill="#E3F2FF"></path>
            <path d="M118,146.238443 C118,147.356093 117.20622,148.043091 116.729952,148.3507 C116.253685,148.658311 115.24823,149.150488 113.819427,148.955668 L9.8739701,134.733811 C6.47394771,134.272396 4,131.985824 4,129.299361 L4,21.6972279 C4,19.0107648 6.47394771,16.7241932 9.8739701,16.2627782 L113.819427,2.0409215 C115.261462,1.85635655 116.253685,2.3382776 116.729952,2.64588936 C117.20622,2.95349848 118,3.64049579 118,4.7581464 L118,146.238443 Z" id="Shape" fill="#72CAAF"></path>
            <path d="M16.5514882,72 C9.02160485,72 2.9474092,76.739557 3.00034336,82.5641947 L3.46351811,128.332136 C3.46351811,131.01413 5.93819091,133.296897 9.3524425,133.757545 L113.328364,147.955741 C114.757587,148.150238 115.763336,147.65888 116.22651,147.35178 C116.716151,147.044683 117.510163,146.358828 117.510163,145.243037 L117.999807,82.5437228 C118.039505,76.7293211 111.965312,72 104.448662,72 L16.5514882,72 Z" id="Shape" fill="#5DBC9D"></path>
            <path d="M116.7301,2.64167574 C116.253887,2.33607076 115.24855,1.85729364 113.819912,2.04065454 L9.88651583,16.1697314 C6.47366067,16.6281362 4,18.8997908 4,21.5687282 L4,32 C4,29.3310626 6.47366067,27.059408 9.88651583,26.6010032 L113.819912,12.4719264 C115.24855,12.2885655 116.253887,12.7673426 116.716872,13.0729476 C117.206312,13.3785499 118,14.0610654 118,15.1714248 L118,4.74015294 C118,3.62979361 117.206312,2.9472781 116.7301,2.64167574 Z" id="Shape" fill="#97E0BB"></path>
            <polygon id="Shape" fill="#C5E4FA" points="118 23 138 23 138 128 118 128"></polygon>
            <path d="M185.862069,19.9622922 L121.655172,19.9622922 L121.655172,7.86147716 C121.655172,5.53754647 120.335129,3.3364667 118.038256,1.84178173 C115.72818,0.347094134 112.718481,-0.287634346 109.748385,0.121868745 L11.1675663,13.6149943 C4.69935345,14.4954272 0,18.83616 0,23.9344722 L0,126.064543 C0,131.162858 4.69935345,135.503591 11.1675663,136.384021 L109.761585,149.877149 C110.342404,149.95905 110.936422,150 111.530441,150 C113.893319,150 116.190196,149.355032 118.038256,148.157236 C120.335129,146.662548 121.655172,144.461469 121.655172,142.137541 L121.655172,130.036723 L185.862069,130.036723 C191.445852,130.036723 196,126.50476 196,122.174264 L196,27.8247515 C196,23.4942557 191.445852,19.9622922 185.862069,19.9622922 Z M114.896552,142.137541 C114.896552,143.192009 114.144128,143.847214 113.695312,144.144106 C113.246499,144.430758 112.282868,144.901685 110.923223,144.71741 L12.3424039,131.224282 C9.1082991,130.784065 6.75862069,128.613699 6.75862069,126.064543 L6.75862069,23.9344722 C6.75862069,21.3853161 9.1082991,19.2149497 12.3424039,18.7747332 L110.923223,5.28160769 C112.282868,5.10756691 113.233299,5.56825985 113.682112,5.85491202 C114.144128,6.1518011 114.896552,6.80700605 114.896552,7.86147716 L114.896552,142.137541 Z M189.241379,122.174264 C189.241379,123.617761 187.723329,124.795083 185.862069,124.795083 L121.655172,124.795083 L121.655172,109.070165 L131.793103,109.070165 C133.654363,109.070165 135.172414,107.903082 135.172414,106.449345 C135.172414,104.99561 133.654363,103.828525 131.793103,103.828525 L121.655172,103.828525 L121.655172,93.3452461 L131.793103,93.3452461 C133.654363,93.3452461 135.172414,92.1781636 135.172414,90.7244263 C135.172414,89.2706916 133.654363,88.1036065 131.793103,88.1036065 L121.655172,88.1036065 L121.655172,77.6203274 L131.793103,77.6203274 C133.654363,77.6203274 135.172414,76.4532449 135.172414,74.9995076 C135.172414,73.5457729 133.654363,72.3786878 131.793103,72.3786878 L121.655172,72.3786878 L121.655172,61.8954087 L131.793103,61.8954087 C133.654363,61.8954087 135.172414,60.7283262 135.172414,59.2745889 C135.172414,57.8208542 133.654363,56.6537691 131.793103,56.6537691 L121.655172,56.6537691 L121.655172,46.17049 L131.793103,46.17049 C133.654363,46.17049 135.172414,45.0034075 135.172414,43.5496702 C135.172414,42.0959356 133.654363,40.9288504 131.793103,40.9288504 L121.655172,40.9288504 L121.655172,25.2039317 L185.862069,25.2039317 C187.723329,25.2039317 189.241379,26.3812538 189.241379,27.8247515 L189.241379,122.174264 Z" id="Shape" fill="#8D6C9F"></path>
            <path d="M165.625,41 L145.375,41 C143.516114,41 142,42.1132825 142,43.5 C142,44.88672 143.516114,46 145.375,46 L165.625,46 C167.483886,46 169,44.88672 169,43.5 C169,42.1132825 167.483886,41 165.625,41 Z" id="Shape" fill="#8D6C9F"></path>
            <path d="M165.625,57 L145.375,57 C143.516114,57 142,58.1132825 142,59.5 C142,60.88672 143.516114,62 145.375,62 L165.625,62 C167.483886,62 169,60.88672 169,59.5 C169,58.1132825 167.483886,57 165.625,57 Z" id="Shape" fill="#8D6C9F"></path>
            <path d="M165.625,72 L145.375,72 C143.516114,72 142,73.1132825 142,74.5 C142,75.88672 143.516114,77 145.375,77 L165.625,77 C167.483886,77 169,75.88672 169,74.5 C169,73.1132825 167.483886,72 165.625,72 Z" id="Shape" fill="#8D6C9F"></path>
            <path d="M165.625,88 L145.375,88 C143.516114,88 142,89.1132825 142,90.5 C142,91.88672 143.516114,93 145.375,93 L165.625,93 C167.483886,93 169,91.88672 169,90.5 C169,89.1132825 167.483886,88 165.625,88 Z" id="Shape" fill="#8D6C9F"></path>
            <path d="M165.625,104 L145.375,104 C143.516114,104 142,105.113282 142,106.5 C142,107.88672 143.516114,109 145.375,109 L165.625,109 C167.483886,109 169,107.88672 169,106.5 C169,105.113282 167.483886,104 165.625,104 Z" id="Shape" fill="#8D6C9F"></path>
            <path d="M83.456063,46.4249424 C81.8758118,45.6320117 79.7643875,45.9821385 78.74187,47.1972788 L59.4999996,70.1613969 L40.2581291,47.1972788 C39.2223331,45.9821385 37.1241873,45.6320117 35.5439362,46.4249424 C33.976967,47.2281729 33.5254652,48.8552256 34.5479792,50.0806657 L55.4497791,75.0013664 L34.5479792,99.9220672 C33.5254652,101.147507 33.976967,102.77456 35.5439362,103.57779 C36.1282304,103.866129 36.7656423,104 37.4030542,104 C38.5052464,104 39.6074386,103.57779 40.2581291,102.805454 L59.4999996,79.8413385 L78.74187,102.805454 C79.3925639,103.57779 80.4947527,104 81.596945,104 C82.2343569,104 82.8850473,103.866129 83.456063,103.57779 C85.0230356,102.77456 85.474534,101.147507 84.4520199,99.9220672 L63.5502201,75.0013664 L84.4520199,50.0806657 C85.474534,48.8552256 85.0230356,47.2281729 83.456063,46.4249424 Z" id="Shape" fill="#FAEFDE"></path>
        </g>
        <g id="Plus" fill="#4A90E2" fill-opacity="1">
            <use filter="url(#filter-2)" xlink:href="#text-1"></use>
            <use xlink:href="#text-1"></use>
        </g>
    </g>
</svg>